HIERARCHY
ROOT Hips
{
  OFFSET 40.9192 92.6879 18.85
  CHANNELS 6 Xposition Yposition Zposition Zrotation Xrotation Yrotation
  JOINT LeftUpLeg
  {
    OFFSET 8.64259 1.95398 -2.38835
    CHANNELS 3 Zrotation Xrotation Yrotation
    JOINT LeftLeg
    {
      OFFSET 43.7702 0 0
      CHANNELS 3 Zrotation Xrotation Yrotation
      JOINT LeftFoot
      {
        OFFSET 40.6238 0 0
        CHANNELS 3 Zrotation Xrotation Yrotation
        JOINT LeftToeBase
        {
          OFFSET 12.7242 0 0
          CHANNELS 3 Zrotation Xrotation Yrotation
          End Site
          {
            OFFSET 0 0 0
          }
        }
      }
    }
  }
  JOINT RightUpLeg
  {
    OFFSET -8.2249 1.95398 -2.59336
    CHANNELS 3 Zrotation Xrotation Yrotation
    JOINT RightLeg
    {
      OFFSET 43.5653 0 0
      CHANNELS 3 Zrotation Xrotation Yrotation
      JOINT RightFoot
      {
        OFFSET 40.6238 0 0
        CHANNELS 3 Zrotation Xrotation Yrotation
        JOINT RightToeBase
        {
          OFFSET 12.7242 0 0
          CHANNELS 3 Zrotation Xrotation Yrotation
          End Site
          {
            OFFSET 0 0 0
          }
        }
      }
    }
  }
  JOINT Spine
  {
    OFFSET 0.165834 0.87714 6.61349
    CHANNELS 3 Zrotation Xrotation Yrotation
    JOINT Spine1
    {
      OFFSET 7.38963 1.71661e-005 0
      CHANNELS 3 Zrotation Xrotation Yrotation
      JOINT Spine2
      {
        OFFSET 11.9445 1.14441e-005 0
        CHANNELS 3 Zrotation Xrotation Yrotation
        JOINT Spine3
        {
          OFFSET 14.7254 4.19617e-005 0
          CHANNELS 3 Zrotation Xrotation Yrotation
          JOINT Spine4
          {
            OFFSET 10.9679 0 0
            CHANNELS 3 Zrotation Xrotation Yrotation
            JOINT RightShoulder
            {
              OFFSET 2.46616 -1.6653 3.69651
              CHANNELS 3 Zrotation Xrotation Yrotation
              JOINT RightArm
              {
                OFFSET 13.0012 0 0
                CHANNELS 3 Zrotation Xrotation Yrotation
                JOINT RightForeArm
                {
                  OFFSET 28.7848 1.52588e-005 0
                  CHANNELS 3 Zrotation Xrotation Yrotation
                  JOINT RightHand
                  {
                    OFFSET 26.5688 1.52588e-005 0
                    CHANNELS 3 Zrotation Xrotation Yrotation
                    End Site
                    {
                      OFFSET 0 0 0
                    }
                  }
                }
              }
            }
            JOINT LeftShoulder
            {
              OFFSET 2.38034 -1.29275 -3.7523
              CHANNELS 3 Zrotation Xrotation Yrotation
              JOINT LeftArm
              {
                OFFSET 16.3182 6.10351e-005 0
                CHANNELS 3 Zrotation Xrotation Yrotation
                JOINT LeftForeArm
                {
                  OFFSET 27.0901 0 0
                  CHANNELS 3 Zrotation Xrotation Yrotation
                  JOINT LeftHand
                  {
                    OFFSET 24.5451 1.52588e-005 0
                    CHANNELS 3 Zrotation Xrotation Yrotation
                    End Site
                    {
                      OFFSET 0 0 0
                    }
                  }
                }
              }
            }
            JOINT Neck
            {
              OFFSET 5.0226 -0.0266342 0
              CHANNELS 3 Zrotation Xrotation Yrotation
              JOINT Head
              {
                OFFSET 6.69363 2.86102e-005 0
                CHANNELS 3 Zrotation Xrotation Yrotation
                End Site
                {
                  OFFSET 0 0 0
                }
              }
            }
          }
        }
      }
    }
  }
}
MOTION
Frames:	9
Frame Time:	0.0416667
-53.5104 97.3526 42.6556 -121.19 -84.3174 -120.177 -169.732 2.91736 94.0222 -11.6908 10.7825 -2.53005 63.8418 2.65252 0.959631 28.7182 -0.083462 0.332696 172.92 1.80047 88.7392 -10.6993 -10.3684 -0.472178 63.2874 -2.21185 -1.2245 29.0827 0.107655 -1.49701 0.065647 7.25949 -90.0147 12.3549 0.123525 -0.0434334 0.683984 0.121491 -0.0488318 -21.8512 0.130862 -0.00429415 -1.83857 0.13086 -0.00430922 93.4948 -46.2084 -96.1134 31.596 -6.35906 4.75833 -5.42077 -22.8262 -41.1838 -5.13098 -0.802743 5.88613 -96.4568 -48.9977 68.8448 -24.5677 14.5635 5.11062 3.03927 10.8807 -32.3782 9.26269 0.701224 3.38919 15.7689 2.92358 -0.383468 -11.1505 3.0288 -1.36486 
-53.4953 97.3248 42.3847 -117.626 -84.2561 -116.706 -169.64 3.53345 93.9763 -11.8909 9.88714 -2.78494 63.0209 1.83217 0.900024 30.0928 1.17283 -1.66654 172.774 2.41119 88.6215 -10.8469 -10.6951 -0.334125 63.3733 -2.2644 -1.26064 29.5546 0.181877 -2.52905 0.0696649 7.33763 -89.9726 12.1986 0.15142 0.0375876 0.527652 0.152928 0.0308745 -22.0075 0.133125 0.0813535 -1.9949 0.133128 0.0813499 93.3382 -46.3489 -96.3403 31.6372 -5.98188 5.60994 -4.99051 -22.5764 -39.9169 -5.69995 -0.806878 5.18683 -96.2485 -48.3497 68.9453 -25.4858 14.5727 6.65464 3.2423 10.9396 -33.0828 11.1409 0.818038 3.28803 11.7191 1.96697 -0.0411623 -1.89557 1.96797 1.95286 
-53.4412 97.3076 42.1476 -112.294 -84.3342 -111.458 -169.749 4.31092 93.7945 -12.1242 10.3241 -2.88114 63.1842 1.95573 1.65739 29.5029 0.579498 -0.110582 172.883 3.20813 88.6216 -11.1113 -11.0287 -0.399131 63.3133 -2.20606 -1.22075 32.0142 0.303151 -3.88367 0.0548852 7.41024 -89.9869 12.0534 0.115361 0.0135494 0.382478 0.115844 0.00844784 -22.1527 0.105947 0.0475859 -2.14006 0.105956 0.0475924 93.3061 -46.2099 -96.4182 31.2006 -5.99388 6.84942 -4.36805 -22.4099 -39.4833 -5.82394 -0.806343 5.14281 -95.9623 -48.2222 69.3318 -26.6831 14.055 8.72345 3.36511 10.1071 -33.7363 10.7782 0.733845 2.77181 12.1827 2.24171 -0.162478 0.628823 2.33069 2.16726 
-53.374 97.2702 42.0125 -102.712 -84.1566 -101.811 -169.916 5.24872 93.6677 -12.2295 9.67004 -2.82436 63.3971 1.93119 1.51058 30.2547 1.07274 1.13595 173.264 4.04577 88.9179 -10.7793 -11.24 -0.592434 63.0489 -2.13835 -1.18765 34.5471 0.348436 -4.34837 0.106105 7.46459 -89.9824 11.9447 0.219312 0.0114599 0.273775 0.219608 0.00178942 -22.2615 0.205718 0.0768391 -2.24888 0.205723 0.0768379 93.156 -46.6431 -96.5789 30.7899 -5.67052 8.21851 -3.97895 -22.1585 -39.0344 -5.68058 -0.800743 5.30418 -95.9767 -47.8836 69.201 -27.8265 13.8505 10.8531 4.01738 10.6455 -34.3337 10.507 0.753496 3.10143 12.3181 2.15419 -0.660564 5.59444 2.51394 2.82787 
-53.2646 97.2399 42.0046 -92.5351 -84.3952 -91.5793 -169.882 6.31196 93.6345 -12.1992 9.83932 -3.02651 63.5509 1.92701 1.50002 32.5891 2.91348 1.89151 173.404 4.69807 89.0616 -9.9837 -10.9432 -0.554035 62.9391 -2.13466 -1.19293 35.4905 0.360736 -4.44466 0.0971411 7.50909 -89.9988 11.8557 0.193826 -0.0182737 0.184762 0.192832 -0.0267891 -22.3505 0.190356 0.0408294 -2.33786 0.190355 0.0408228 92.8902 -46.8802 -96.9603 30.7228 -5.10501 9.22215 -4.53023 -22.5126 -38.704 -6.23204 -0.874689 5.7548 -96.0324 -47.9424 69.1366 -28.6555 13.7912 12.2761 3.93554 10.4743 -34.1116 9.7229 0.59029 2.04969 12.244 2.22609 -0.262238 12.8551 2.56716 2.18075 
-53.2069 97.2024 42.0132 -82.2127 -84.3116 -81.2364 -169.869 7.04733 93.6246 -11.6849 9.55119 -3.15272 63.3766 1.77029 0.885904 34.3872 4.35126 2.87004 173.471 5.45923 89.1706 -9.51194 -10.6709 -0.444017 63.2146 -2.24073 -1.25595 36.9737 0.378622 -4.24245 0.139775 7.53542 -90.0002 11.8031 0.277953 -0.0298754 0.1322 0.27636 -0.0420877 -22.4032 0.274073 0.055041 -2.39055 0.274081 0.0550435 92.8279 -47.1075 -97.0161 30.5531 -5.32616 9.84109 -2.86842 -21.5683 -36.8762 -6.25365 -0.835503 5.36196 -96.1204 -47.6585 68.9123 -29.3182 13.999 12.8967 3.61505 10.4712 -33.8352 10.7868 0.687024 2.3485 13.6174 2.00401 0.0011159 17.3482 2.31691 1.87566 
-53.1262 97.1914 42.1767 -76.2068 -84.1397 -75.1594 -169.864 7.57677 93.6002 -11.7493 9.63273 -3.23958 63.9683 2.19011 0.779194 34.1238 4.10258 4.05663 173.519 5.81851 89.2474 -9.20949 -10.6386 -0.39919 63.2851 -2.27093 -1.27337 37.6354 0.384378 -4.40275 0.174046 7.54245 -89.9968 11.7891 0.347657 -0.030512 0.118167 0.345982 -0.0457865 -22.4173 0.340757 0.0753911 -2.4047 0.340753 0.0753815 92.2416 -47.5418 -97.864 30.2503 -5.36385 10.3549 -2.26465 -21.583 -36.1876 -6.31598 -0.842101 5.42793 -96.3478 -47.792 68.6142 -29.4671 14.1028 12.7237 2.04898 8.84753 -32.4782 11.8127 0.860906 3.27244 14.6089 1.88234 -0.457982 19.3968 2.38664 2.08611 
-53.0156 97.2266 42.4883 -73.0797 -83.8818 -71.8544 -169.724 7.83925 93.6943 -11.7887 9.58079 -3.35157 63.9845 2.11579 1.10343 34.3776 4.32072 3.91432 173.619 5.85743 89.3992 -8.8815 -10.7458 -0.406701 62.8781 -2.13704 -1.1958 38.9512 0.389646 -4.87782 0.208939 7.53721 -89.9868 11.7995 0.421757 -0.0184969 0.128636 0.420528 -0.0370483 -22.407 0.407819 0.109119 -2.39439 0.407808 0.109107 92.1928 -47.9606 -97.857 29.9247 -5.73642 8.92015 -2.08152 -22.3653 -35.396 -5.94599 -0.860781 6.02202 -97.2298 -48.3614 67.4869 -28.3173 14.0276 11.7721 1.69534 8.94496 -31.2198 11.3781 0.817638 3.15159 16.137 2.01136 -0.590012 18.9512 2.4973 1.89746 
-52.9217 97.2529 42.9834 -71.5163 -83.5753 -69.9835 -169.682 7.69251 93.887 -11.5282 9.63794 -3.27266 64.0247 2.42335 1.80927 34.6005 4.51807 3.39976 173.744 5.93022 89.6296 -8.96263 -10.6904 -0.39671 62.2864 -1.87913 -1.03534 39.8424 0.389941 -5.03476 0.254956 7.42817 -90.0291 12.0179 0.493211 -0.111789 0.346994 0.487807 -0.133404 -22.1889 0.504015 0.0416192 -2.17626 0.504001 0.0415965 91.3295 -49.0013 -98.9939 27.9603 -6.33703 5.56519 -1.52959 -25.9154 -33.5398 -4.34244 -0.8108 6.58959 -99.1956 -49.5671 65.0154 -25.1555 15.8868 8.28076 -0.108309 10.4078 -27.2918 10.2141 0.72211 2.98881 16.1905 1.77796 0.899354 18.2183 1.63059 0.671607 
